<?xml version="1.0" encoding="utf-8"?>
<!-- Generator: Adobe Illustrator 22.0.1, SVG Export Plug-In . SVG Version: 6.00 Build 0)  -->
<svg version="1.1" id="Layer_1" xmlns="http://www.w3.org/2000/svg" xmlns:xlink="http://www.w3.org/1999/xlink" x="0px" y="0px"
	 viewBox="0 0 800 494.9" style="enable-background:new 0 0 800 494.9;" xml:space="preserve">
<style type="text/css">
	.st0{fill:#3D3F4E;}
	.st1{fill:#FCBD0F;}
</style>
<g>
	<path class="st1" d="M695.4,280.9c-57.7,0-104.6,46.9-104.6,104.6s46.9,104.6,104.6,104.6S800,443.2,800,385.5
		S753.1,280.9,695.4,280.9z"/>
	<path class="st0" d="M337.7,279.7L219.5,490.2L7.3,103.8l-0.7-1.3C-9.4,69.2,4.5,29,37.8,13c9.2-4.5,19-6.7,29.1-6.7
		c7.5,0,14.9,1.2,22.1,3.7c16.4,5.7,29.9,17.4,37.5,32.7l93.6,162.5L337.7,4.7l117.5,200.5l93.6-162.5c7.7-15.2,21.1-26.9,37.5-32.7
		c7.2-2.5,14.6-3.7,22.1-3.7c10.1,0,20,2.2,29.2,6.7c33.2,16.1,47.1,56.2,31.1,89.5l-0.7,1.3L455.8,490.2L337.7,279.7z"/>
</g>
</svg>
